# xmcd
#
# Track frame offsets:
#	150
#	18608
#	32962
#	49464
#	63746
#	83647
#	116498
#	133674
#	152107
#	174083
#	189084
#	206817
#	231315
#
# Disc length: 3382 seconds
#
# Revision: 0
# Processed by: cddbd v1.5.1PL2 Copyright (c) Steve Scherf et al.
# Submitted via: dBpowerAMP V4.0
#
DISCID=b30d340d
DTITLE=Alan Bike - Esta Noche
DYEAR=2000
DGENRE=Blues
TTITLE0=I'm in the Mood
TTITLE1=32:30
TTITLE2=Trouble in Mind
TTITLE3=Things Fallin' Apart
TTITLE4=Headache is my Penance
TTITLE5=Rollin' Stone
TTITLE6=The Red Rooster
TTITLE7=Dust my Broom
TTITLE8=Will the Angels Taka Care of Me Tonight
TTITLE9=Fido's Blues
TTITLE10=Alan in the Desert
TTITLE11=Up the Wind
TTITLE12=Cold Water
EXTD=Grabado en Directo el 27 de Octubre de 2000 en Gironella, Barcelona.
EXTT0=
EXTT1=
EXTT2=
EXTT3=
EXTT4=
EXTT5=
EXTT6=
EXTT7=
EXTT8=
EXTT9=
EXTT10=
EXTT11=
EXTT12=
PLAYORDER=
